<?xml version="1.0" encoding="UTF-8" standalone="no"?><svg xmlns="http://www.w3.org/2000/svg" xmlns:xlink="http://www.w3.org/1999/xlink" contentScriptType="application/ecmascript" contentStyleType="text/css" height="636px" preserveAspectRatio="none" style="width:703px;height:636px;" version="1.1" viewBox="0 0 703 636" width="703px" zoomAndPan="magnify"><defs><filter height="300%" id="f19rsne3wqeifr" width="300%" x="-1" y="-1"><feGaussianBlur result="blurOut" stdDeviation="2.0"/><feColorMatrix in="blurOut" result="blurOut2" type="matrix" values="0 0 0 0 0 0 0 0 0 0 0 0 0 0 0 0 0 0 .4 0"/><feOffset dx="4.0" dy="4.0" in="blurOut2" result="blurOut3"/><feBlend in="SourceGraphic" in2="blurOut3" mode="normal"/></filter></defs><g><line style="stroke: #A80036; stroke-width: 1.0;" x1="221" x2="221" y1="38.2969" y2="457.5547"/><line style="stroke: #A80036; stroke-width: 1.0; stroke-dasharray: 1.0,4.0;" x1="221" x2="221" y1="457.5547" y2="498.3594"/><line style="stroke: #A80036; stroke-width: 1.0;" x1="221" x2="221" y1="498.3594" y2="595.7578"/><line style="stroke: #A80036; stroke-width: 1.0;" x1="398.5" x2="398.5" y1="38.2969" y2="457.5547"/><line style="stroke: #A80036; stroke-width: 1.0; stroke-dasharray: 1.0,4.0;" x1="398.5" x2="398.5" y1="457.5547" y2="498.3594"/><line style="stroke: #A80036; stroke-width: 1.0;" x1="398.5" x2="398.5" y1="498.3594" y2="595.7578"/><rect fill="#FEFECE" filter="url(#f19rsne3wqeifr)" height="30.2969" style="stroke: #A80036; stroke-width: 1.5;" width="53" x="193" y="3"/><text fill="#000000" font-family="sans-serif" font-size="14" lengthAdjust="spacingAndGlyphs" textLength="39" x="200" y="22.9951">Client</text><rect fill="#FEFECE" filter="url(#f19rsne3wqeifr)" height="30.2969" style="stroke: #A80036; stroke-width: 1.5;" width="53" x="193" y="594.7578"/><text fill="#000000" font-family="sans-serif" font-size="14" lengthAdjust="spacingAndGlyphs" textLength="39" x="200" y="614.7529">Client</text><rect fill="#FEFECE" filter="url(#f19rsne3wqeifr)" height="30.2969" style="stroke: #A80036; stroke-width: 1.5;" width="58" x="367.5" y="3"/><text fill="#000000" font-family="sans-serif" font-size="14" lengthAdjust="spacingAndGlyphs" textLength="44" x="374.5" y="22.9951">Server</text><rect fill="#FEFECE" filter="url(#f19rsne3wqeifr)" height="30.2969" style="stroke: #A80036; stroke-width: 1.5;" width="58" x="367.5" y="594.7578"/><text fill="#000000" font-family="sans-serif" font-size="14" lengthAdjust="spacingAndGlyphs" textLength="44" x="374.5" y="614.7529">Server</text><polygon fill="#A80036" points="386.5,65.4297,396.5,69.4297,386.5,73.4297,390.5,69.4297" style="stroke: #A80036; stroke-width: 1.0;"/><line style="stroke: #A80036; stroke-width: 1.0;" x1="221.5" x2="392.5" y1="69.4297" y2="69.4297"/><text fill="#000000" font-family="sans-serif" font-size="13" lengthAdjust="spacingAndGlyphs" textLength="26" x="228.5" y="64.3638">SYN</text><polygon fill="#A80036" points="232.5,94.5625,222.5,98.5625,232.5,102.5625,228.5,98.5625" style="stroke: #A80036; stroke-width: 1.0;"/><line style="stroke: #A80036; stroke-width: 1.0;" x1="226.5" x2="397.5" y1="98.5625" y2="98.5625"/><text fill="#000000" font-family="sans-serif" font-size="13" lengthAdjust="spacingAndGlyphs" textLength="56" x="238.5" y="93.4966">SYN/ACK</text><polygon fill="#A80036" points="386.5,123.6953,396.5,127.6953,386.5,131.6953,390.5,127.6953" style="stroke: #A80036; stroke-width: 1.0;"/><line style="stroke: #A80036; stroke-width: 1.0;" x1="221.5" x2="392.5" y1="127.6953" y2="127.6953"/><text fill="#000000" font-family="sans-serif" font-size="13" lengthAdjust="spacingAndGlyphs" textLength="26" x="228.5" y="122.6294">ACK</text><polygon fill="#A80036" points="232.5,152.8281,222.5,156.8281,232.5,160.8281,228.5,156.8281" style="stroke: #A80036; stroke-width: 1.0;"/><polygon fill="#A80036" points="386.5,152.8281,396.5,156.8281,386.5,160.8281,390.5,156.8281" style="stroke: #A80036; stroke-width: 1.0;"/><line style="stroke: #A80036; stroke-width: 1.0; stroke-dasharray: 2.0,2.0;" x1="226.5" x2="392.5" y1="156.8281" y2="156.8281"/><text fill="#000000" font-family="sans-serif" font-size="13" lengthAdjust="spacingAndGlyphs" textLength="89" x="238.5" y="151.7622">ESTABLISHED</text><polygon fill="#A80036" points="386.5,209.6602,396.5,213.6602,386.5,217.6602,390.5,213.6602" style="stroke: #A80036; stroke-width: 1.0;"/><line style="stroke: #A80036; stroke-width: 1.0;" x1="221.5" x2="392.5" y1="213.6602" y2="213.6602"/><text fill="#000000" font-family="sans-serif" font-size="13" lengthAdjust="spacingAndGlyphs" textLength="90" x="228.5" y="208.5942">CLIENT HELLO</text><path d="M8,169.8281 L8,239.8281 L213,239.8281 L213,179.8281 L203,169.8281 L8,169.8281 " fill="#FBFB77" filter="url(#f19rsne3wqeifr)" style="stroke: #A80036; stroke-width: 1.0;"/><path d="M203,169.8281 L203,179.8281 L213,179.8281 L203,169.8281 " fill="#FBFB77" style="stroke: #A80036; stroke-width: 1.0;"/><text fill="#000000" font-family="sans-serif" font-size="13" lengthAdjust="spacingAndGlyphs" textLength="140" x="14" y="186.895">- SSL Protocol version</text><text fill="#000000" font-family="sans-serif" font-size="13" lengthAdjust="spacingAndGlyphs" textLength="72" x="14" y="202.0278">- SessionID</text><text fill="#000000" font-family="sans-serif" font-size="13" lengthAdjust="spacingAndGlyphs" textLength="136" x="14" y="217.1606">- List of Cipher Suites</text><text fill="#000000" font-family="sans-serif" font-size="13" lengthAdjust="spacingAndGlyphs" textLength="5" x="14" y="232.2935">-</text><text fill="#000000" font-family="sans-serif" font-size="13" font-weight="bold" lengthAdjust="spacingAndGlyphs" textLength="102" x="23" y="232.2935">CLIENT HELLO</text><text fill="#000000" font-family="sans-serif" font-size="13" lengthAdjust="spacingAndGlyphs" textLength="69" x="129" y="232.2935">Extensions</text><polygon fill="#A80036" points="232.5,309.3242,222.5,313.3242,232.5,317.3242,228.5,313.3242" style="stroke: #A80036; stroke-width: 1.0;"/><line style="stroke: #A80036; stroke-width: 1.0;" x1="226.5" x2="397.5" y1="313.3242" y2="313.3242"/><text fill="#000000" font-family="sans-serif" font-size="13" lengthAdjust="spacingAndGlyphs" textLength="96" x="238.5" y="308.2583">SERVER HELLO</text><path d="M403,254.3594 L403,354.3594 L661,354.3594 L661,264.3594 L651,254.3594 L403,254.3594 " fill="#FBFB77" filter="url(#f19rsne3wqeifr)" style="stroke: #A80036; stroke-width: 1.0;"/><path d="M651,254.3594 L651,264.3594 L661,264.3594 L651,254.3594 " fill="#FBFB77" style="stroke: #A80036; stroke-width: 1.0;"/><text fill="#000000" font-family="sans-serif" font-size="13" lengthAdjust="spacingAndGlyphs" textLength="140" x="409" y="271.4263">- SSL Protocol version</text><text fill="#000000" font-family="sans-serif" font-size="13" lengthAdjust="spacingAndGlyphs" textLength="76" x="409" y="286.5591">- Session ID</text><text fill="#000000" font-family="sans-serif" font-size="13" lengthAdjust="spacingAndGlyphs" textLength="110" x="409" y="301.6919">- Selected Cipher</text><text fill="#000000" font-family="sans-serif" font-size="13" lengthAdjust="spacingAndGlyphs" textLength="120" x="409" y="316.8247">- Server Certificate</text><text fill="#000000" font-family="sans-serif" font-size="13" lengthAdjust="spacingAndGlyphs" textLength="5" x="409" y="331.9575">-</text><text fill="#000000" font-family="sans-serif" font-size="13" font-weight="bold" lengthAdjust="spacingAndGlyphs" textLength="109" x="418" y="331.9575">SERVER HELLO</text><text fill="#000000" font-family="sans-serif" font-size="13" lengthAdjust="spacingAndGlyphs" textLength="69" x="531" y="331.9575">Extensions</text><text fill="#000000" font-family="sans-serif" font-size="13" lengthAdjust="spacingAndGlyphs" textLength="237" x="409" y="347.0903">- Client Certificate Request (Optional)</text><polygon fill="#A80036" points="386.5,393.8555,396.5,397.8555,386.5,401.8555,390.5,397.8555" style="stroke: #A80036; stroke-width: 1.0;"/><line style="stroke: #A80036; stroke-width: 1.0;" x1="221.5" x2="392.5" y1="397.8555" y2="397.8555"/><text fill="#000000" font-family="sans-serif" font-size="13" lengthAdjust="spacingAndGlyphs" textLength="133" x="228.5" y="392.7896">PRE MASTER SECRET</text><path d="M25,369.1563 L25,409.1563 L212,409.1563 L212,379.1563 L202,369.1563 L25,369.1563 " fill="#FBFB77" filter="url(#f19rsne3wqeifr)" style="stroke: #A80036; stroke-width: 1.0;"/><path d="M202,369.1563 L202,379.1563 L212,379.1563 L202,369.1563 " fill="#FBFB77" style="stroke: #A80036; stroke-width: 1.0;"/><text fill="#000000" font-family="sans-serif" font-size="13" lengthAdjust="spacingAndGlyphs" textLength="125" x="31" y="386.2231">- Pre-master secret</text><text fill="#000000" font-family="sans-serif" font-size="13" lengthAdjust="spacingAndGlyphs" textLength="166" x="31" y="401.356">- Client Cert (if requested)</text><polygon fill="#A80036" points="232.5,440.5547,222.5,444.5547,232.5,448.5547,228.5,444.5547" style="stroke: #A80036; stroke-width: 1.0;"/><polygon fill="#A80036" points="386.5,440.5547,396.5,444.5547,386.5,448.5547,390.5,444.5547" style="stroke: #A80036; stroke-width: 1.0;"/><line style="stroke: #A80036; stroke-width: 1.0; stroke-dasharray: 2.0,2.0;" x1="226.5" x2="392.5" y1="444.5547" y2="444.5547"/><text fill="#000000" font-family="sans-serif" font-size="13" lengthAdjust="spacingAndGlyphs" textLength="153" x="238.5" y="439.4888">SESSION KEY CREATION</text><path d="M403,423.4219 L403,448.4219 L691,448.4219 L691,433.4219 L681,423.4219 L403,423.4219 " fill="#FBFB77" filter="url(#f19rsne3wqeifr)" style="stroke: #A80036; stroke-width: 1.0;"/><path d="M681,423.4219 L681,433.4219 L691,433.4219 L681,423.4219 " fill="#FBFB77" style="stroke: #A80036; stroke-width: 1.0;"/><text fill="#000000" font-family="sans-serif" font-size="13" lengthAdjust="spacingAndGlyphs" textLength="267" x="409" y="440.4888">Server Authenticates the Client (Optional)</text><text fill="#000000" font-family="sans-serif" font-size="11" lengthAdjust="spacingAndGlyphs" textLength="339" x="140.5" y="481.7651">Master secret is used to generate Symmetric session keys</text><polygon fill="#A80036" points="386.5,515.4922,396.5,519.4922,386.5,523.4922,390.5,519.4922" style="stroke: #A80036; stroke-width: 1.0;"/><line style="stroke: #A80036; stroke-width: 1.0;" x1="221.5" x2="392.5" y1="519.4922" y2="519.4922"/><text fill="#000000" font-family="sans-serif" font-size="13" lengthAdjust="spacingAndGlyphs" textLength="108" x="228.5" y="514.4263">CLIENT FINISHED</text><polygon fill="#A80036" points="232.5,544.625,222.5,548.625,232.5,552.625,228.5,548.625" style="stroke: #A80036; stroke-width: 1.0;"/><line style="stroke: #A80036; stroke-width: 1.0;" x1="226.5" x2="397.5" y1="548.625" y2="548.625"/><text fill="#000000" font-family="sans-serif" font-size="13" lengthAdjust="spacingAndGlyphs" textLength="114" x="238.5" y="543.5591">SERVER FINISHED</text><polygon fill="#A80036" points="232.5,573.7578,222.5,577.7578,232.5,581.7578,228.5,577.7578" style="stroke: #A80036; stroke-width: 1.0;"/><polygon fill="#A80036" points="386.5,573.7578,396.5,577.7578,386.5,581.7578,390.5,577.7578" style="stroke: #A80036; stroke-width: 1.0;"/><line style="stroke: #A80036; stroke-width: 1.0; stroke-dasharray: 2.0,2.0;" x1="226.5" x2="392.5" y1="577.7578" y2="577.7578"/><text fill="#000000" font-family="sans-serif" font-size="13" lengthAdjust="spacingAndGlyphs" textLength="149" x="238.5" y="572.6919">EXCHANGE MESSAGES</text><!--
@startuml

Client -> Server : SYN
Client <- Server : SYN/ACK
Client -> Server : ACK
Client <- -> Server : ESTABLISHED

Client -> Server : CLIENT HELLO
note left 
	- SSL Protocol version
	- SessionID
	- List of Cipher Suites
	- **CLIENT HELLO** Extensions
end note
Client <- Server : SERVER HELLO
note right
	- SSL Protocol version
	- Session ID
	- Selected Cipher
	- Server Certificate
	- **SERVER HELLO** Extensions
	- Client Certificate Request (Optional)
end note
Client -> Server : PRE MASTER SECRET
note left 
	- Pre-master secret
	- Client Cert (if requested)
end note
Client <- -> Server : SESSION KEY CREATION
note right
	Server Authenticates the Client (Optional)
end note

... Master secret is used to generate Symmetric session keys ...

Client -> Server : CLIENT FINISHED
Client <- Server : SERVER FINISHED
Client <- -> Server : EXCHANGE MESSAGES


@enduml

PlantUML version 1.2018.13(Mon Nov 26 17:11:51 UTC 2018)
(GPL source distribution)
Java Runtime: OpenJDK Runtime Environment
JVM: OpenJDK 64-Bit Server VM
Java Version: 11.0.6+10-post-Debian-1deb10u1
Operating System: Linux
OS Version: 5.0.0-1035-azure
Default Encoding: UTF-8
Language: en
Country: null
--></g></svg>