<?xml version="1.0" encoding="UTF-8" standalone="no"?><svg xmlns="http://www.w3.org/2000/svg" xmlns:xlink="http://www.w3.org/1999/xlink" contentScriptType="application/ecmascript" contentStyleType="text/css" height="797px" preserveAspectRatio="none" style="width:375px;height:797px;" version="1.1" viewBox="0 0 375 797" width="375px" zoomAndPan="magnify"><defs><filter height="300%" id="f1pvcu1qrxnu80" width="300%" x="-1" y="-1"><feGaussianBlur result="blurOut" stdDeviation="2.0"/><feColorMatrix in="blurOut" result="blurOut2" type="matrix" values="0 0 0 0 0 0 0 0 0 0 0 0 0 0 0 0 0 0 .4 0"/><feOffset dx="4.0" dy="4.0" in="blurOut2" result="blurOut3"/><feBlend in="SourceGraphic" in2="blurOut3" mode="normal"/></filter></defs><g><ellipse cx="198.6396" cy="32.0473" fill="#FEFECE" filter="url(#f1pvcu1qrxnu80)" rx="66.6396" ry="26.0473" style="stroke:#A80036;stroke-width:1.5;"/><text fill="#000000" font-family="sans-serif" font-size="14" lengthAdjust="spacing" textLength="29" x="184.1396" y="26.7455">Cash</text><text fill="#000000" font-family="sans-serif" font-size="14" lengthAdjust="spacing" textLength="78" x="159.6396" y="43.0424">Liquid Value</text><!--MD5=[c219c591bb3a411e6b3f7f64e6968b4e]
entity SolutionFulfillment--><rect fill="#FEFECE" filter="url(#f1pvcu1qrxnu80)" height="62.5938" style="stroke:#A80036;stroke-width:1.5;" width="180" x="36.5" y="135"/><rect fill="#FEFECE" height="10" style="stroke:#A80036;stroke-width:1.5;" width="15" x="196.5" y="140"/><rect fill="#FEFECE" height="2" style="stroke:#A80036;stroke-width:1.5;" width="4" x="194.5" y="142"/><rect fill="#FEFECE" height="2" style="stroke:#A80036;stroke-width:1.5;" width="4" x="194.5" y="146"/><text fill="#000000" font-family="sans-serif" font-size="14" lengthAdjust="spacing" textLength="126" x="51.5" y="167.9951">Solution Fulfillment</text><text fill="#000000" font-family="sans-serif" font-size="14" lengthAdjust="spacing" textLength="140" x="51.5" y="184.292">Creative Management</text><ellipse cx="117.267" cy="285.0473" fill="#FEFECE" filter="url(#f1pvcu1qrxnu80)" rx="89.267" ry="26.0473" style="stroke:#A80036;stroke-width:1.5;"/><text fill="#000000" font-family="sans-serif" font-size="14" lengthAdjust="spacing" textLength="74" x="80.267" y="279.7455">New Recipe</text><text fill="#000000" font-family="sans-serif" font-size="14" lengthAdjust="spacing" textLength="110" x="62.267" y="296.0424">Discovered Value</text><!--MD5=[6ba028092a2c3776fd002ba8257d85a9]
entity OrderFulfillment--><rect fill="#FEFECE" filter="url(#f1pvcu1qrxnu80)" height="62.5938" style="stroke:#A80036;stroke-width:1.5;" width="193" x="7" y="372"/><rect fill="#FEFECE" height="10" style="stroke:#A80036;stroke-width:1.5;" width="15" x="180" y="377"/><rect fill="#FEFECE" height="2" style="stroke:#A80036;stroke-width:1.5;" width="4" x="178" y="379"/><rect fill="#FEFECE" height="2" style="stroke:#A80036;stroke-width:1.5;" width="4" x="178" y="383"/><text fill="#000000" font-family="sans-serif" font-size="14" lengthAdjust="spacing" textLength="112" x="22" y="404.9951">Order Fulfillment</text><text fill="#000000" font-family="sans-serif" font-size="14" lengthAdjust="spacing" textLength="153" x="22" y="421.292">Replicated Management</text><ellipse cx="111.6817" cy="522.2246" fill="#FEFECE" filter="url(#f1pvcu1qrxnu80)" rx="104.1817" ry="26.2246" style="stroke:#A80036;stroke-width:1.5;"/><text fill="#000000" font-family="sans-serif" font-size="14" lengthAdjust="spacing" textLength="130" x="43.6817" y="517.8237">Repeatable Business</text><text fill="#000000" font-family="sans-serif" font-size="14" lengthAdjust="spacing" textLength="105" x="56.1817" y="534.1206">Replicated Value</text><!--MD5=[2538dcc0748c01dbcfc4fccb873a571e]
entity CashFulfillment--><rect fill="#FEFECE" filter="url(#f1pvcu1qrxnu80)" height="62.5938" style="stroke:#A80036;stroke-width:1.5;" width="182" x="31.5" y="609"/><rect fill="#FEFECE" height="10" style="stroke:#A80036;stroke-width:1.5;" width="15" x="193.5" y="614"/><rect fill="#FEFECE" height="2" style="stroke:#A80036;stroke-width:1.5;" width="4" x="191.5" y="616"/><rect fill="#FEFECE" height="2" style="stroke:#A80036;stroke-width:1.5;" width="4" x="191.5" y="620"/><text fill="#000000" font-family="sans-serif" font-size="14" lengthAdjust="spacing" textLength="103" x="46.5" y="641.9951">Cash Fulfillment</text><text fill="#000000" font-family="sans-serif" font-size="14" lengthAdjust="spacing" textLength="142" x="46.5" y="658.292">Financial Management</text><ellipse cx="196.334" cy="759.1113" fill="#FEFECE" filter="url(#f1pvcu1qrxnu80)" rx="83.834" ry="26.1113" style="stroke:#A80036;stroke-width:1.5;"/><text fill="#000000" font-family="sans-serif" font-size="14" lengthAdjust="spacing" textLength="102" x="142.334" y="754.7104">Delivered Value</text><text fill="#000000" font-family="sans-serif" font-size="14" lengthAdjust="spacing" textLength="68" x="159.334" y="771.0072">Cash Value</text><!--MD5=[1efadbe0ca8c88ce0933579f8e0faa7d]
link Cash to SolutionFulfillment--><path d="M185.13,57.61 C173.99,78.1 158.01,107.52 145.54,130.47 " fill="none" id="Cash-to-SolutionFulfillment" style="stroke:#A80036;stroke-width:1.0;"/><polygon fill="#A80036" points="143.09,134.96,150.8962,128.9548,145.4733,130.5645,143.8635,125.1416,143.09,134.96" style="stroke:#A80036;stroke-width:1.0;"/><text fill="#000000" font-family="sans-serif" font-size="13" lengthAdjust="spacing" textLength="66" x="168.5" y="101.0669">Investment</text><!--MD5=[11a3dba5d34698fc978b2f20002b27cc]
link SolutionFulfillment to NewRecipe--><path d="M124.14,198.11 C122.81,215.22 121.17,236.46 119.85,253.54 " fill="none" id="SolutionFulfillment-to-NewRecipe" style="stroke:#A80036;stroke-width:1.0;"/><polygon fill="#A80036" points="119.45,258.7,124.1323,250.0353,119.8357,253.7149,116.1561,249.4183,119.45,258.7" style="stroke:#A80036;stroke-width:1.0;"/><!--MD5=[d8cbf66748c64303de347bd0f28f6f81]
link NewRecipe to OrderFulfillment--><path d="M114.5,310.99 C112.54,327.25 109.97,348.7 107.8,366.75 " fill="none" id="NewRecipe-to-OrderFulfillment" style="stroke:#A80036;stroke-width:1.0;"/><polygon fill="#A80036" points="107.2,371.74,112.2525,363.2859,107.8008,366.7762,104.3104,362.3246,107.2,371.74" style="stroke:#A80036;stroke-width:1.0;"/><!--MD5=[1edccdca511d9b4651941e4fd7803c27]
link OrderFulfillment to RepeatableBusiness--><path d="M105.6,435.11 C106.78,452.22 108.24,473.46 109.41,490.54 " fill="none" id="OrderFulfillment-to-RepeatableBusiness" style="stroke:#A80036;stroke-width:1.0;"/><polygon fill="#A80036" points="109.76,495.7,113.1612,486.4571,109.4321,490.7108,105.1785,486.9817,109.76,495.7" style="stroke:#A80036;stroke-width:1.0;"/><!--MD5=[2e5050d2599a3bbae41f75760ff50f7e]
link RepeatableBusiness to CashFulfillment--><path d="M113.89,548.28 C115.41,564.41 117.41,585.57 119.1,603.45 " fill="none" id="RepeatableBusiness-to-CashFulfillment" style="stroke:#A80036;stroke-width:1.0;"/><polygon fill="#A80036" points="119.61,608.89,122.7425,599.5526,119.138,603.9123,114.7782,600.3078,119.61,608.89" style="stroke:#A80036;stroke-width:1.0;"/><!--MD5=[3e730188e2205ee8b299a5d02ad56f18]
link CashFulfillment to DeliveredValue--><path d="M141.94,672.11 C153.08,689.64 166.97,711.51 177.95,728.79 " fill="none" id="CashFulfillment-to-DeliveredValue" style="stroke:#A80036;stroke-width:1.0;"/><polygon fill="#A80036" points="180.67,733.08,179.2064,723.3405,177.9828,728.8635,172.4599,727.6399,180.67,733.08" style="stroke:#A80036;stroke-width:1.0;"/><!--MD5=[ea018e0498c2e24928d77539a15463c8]
link DeliveredValue to Cash--><path d="M223.22,733.97 C244.41,712.16 270.5,677.92 270.5,641.5 C270.5,165.5 270.5,165.5 270.5,165.5 C270.5,125.49 244.84,86.03 224.16,60.72 " fill="none" id="DeliveredValue-to-Cash" style="stroke:#A80036;stroke-width:1.0;"/><polygon fill="#A80036" points="220.89,56.78,223.5753,66.2557,224.0895,60.6223,229.723,61.1365,220.89,56.78" style="stroke:#A80036;stroke-width:1.0;"/><text fill="#000000" font-family="sans-serif" font-size="13" lengthAdjust="spacing" textLength="96" x="271.5" y="408.0669">Next Investment</text><!--MD5=[d76ed186f578049e2c8fab8724987f1b]
@startuml

(Cash) as "Cash\nLiquid Value"

component SolutionFulfillment [
    Solution Fulfillment
    Creative Management
]

(New Recipe\nDiscovered Value) as NewRecipe

component OrderFulfillment [
    Order Fulfillment
    Replicated Management
]

(Repeatable Business\nReplicated Value) as RepeatableBusiness

component CashFulfillment [
    Cash Fulfillment
    Financial Management
]

(Delivered Value\nCash Value) as DeliveredValue

Cash - -> SolutionFulfillment : Investment
SolutionFulfillment - -> NewRecipe
NewRecipe - -> OrderFulfillment
OrderFulfillment - -> RepeatableBusiness
RepeatableBusiness - -> CashFulfillment
CashFulfillment - -> DeliveredValue
DeliveredValue - -> Cash : Next Investment

@enduml

PlantUML version 1.2021.01(Tue Feb 02 07:55:08 GMT 2021)
(GPL source distribution)
Java Runtime: OpenJDK Runtime Environment
JVM: OpenJDK 64-Bit Server VM
Default Encoding: UTF-8
Language: en
Country: US
--></g></svg>