<?xml version="1.0" encoding="UTF-8" standalone="no"?><svg xmlns="http://www.w3.org/2000/svg" xmlns:xlink="http://www.w3.org/1999/xlink" contentScriptType="application/ecmascript" contentStyleType="text/css" height="644px" preserveAspectRatio="none" style="width:640px;height:644px;" version="1.1" viewBox="0 0 640 644" width="640px" zoomAndPan="magnify"><defs><filter height="300%" id="f19rsne3wqeifr" width="300%" x="-1" y="-1"><feGaussianBlur result="blurOut" stdDeviation="2.0"/><feColorMatrix in="blurOut" result="blurOut2" type="matrix" values="0 0 0 0 0 0 0 0 0 0 0 0 0 0 0 0 0 0 .4 0"/><feOffset dx="4.0" dy="4.0" in="blurOut2" result="blurOut3"/><feBlend in="SourceGraphic" in2="blurOut3" mode="normal"/></filter></defs><g><line style="stroke: #A80036; stroke-width: 1.0;" x1="198" x2="198" y1="38.2969" y2="457.5547"/><line style="stroke: #A80036; stroke-width: 1.0; stroke-dasharray: 1.0,4.0;" x1="198" x2="198" y1="457.5547" y2="498.3594"/><line style="stroke: #A80036; stroke-width: 1.0;" x1="198" x2="198" y1="498.3594" y2="595.7578"/><line style="stroke: #A80036; stroke-width: 1.0;" x1="362.5" x2="362.5" y1="38.2969" y2="457.5547"/><line style="stroke: #A80036; stroke-width: 1.0; stroke-dasharray: 1.0,4.0;" x1="362.5" x2="362.5" y1="457.5547" y2="498.3594"/><line style="stroke: #A80036; stroke-width: 1.0;" x1="362.5" x2="362.5" y1="498.3594" y2="595.7578"/><rect fill="#FEFECE" filter="url(#f19rsne3wqeifr)" height="30.2969" style="stroke: #A80036; stroke-width: 1.5;" width="51" x="171" y="3"/><text fill="#000000" font-family="sans-serif" font-size="14" lengthAdjust="spacingAndGlyphs" textLength="37" x="178" y="22.9951">Client</text><rect fill="#FEFECE" filter="url(#f19rsne3wqeifr)" height="30.2969" style="stroke: #A80036; stroke-width: 1.5;" width="51" x="171" y="594.7578"/><text fill="#000000" font-family="sans-serif" font-size="14" lengthAdjust="spacingAndGlyphs" textLength="37" x="178" y="614.7529">Client</text><rect fill="#FEFECE" filter="url(#f19rsne3wqeifr)" height="30.2969" style="stroke: #A80036; stroke-width: 1.5;" width="56" x="332.5" y="3"/><text fill="#000000" font-family="sans-serif" font-size="14" lengthAdjust="spacingAndGlyphs" textLength="42" x="339.5" y="22.9951">Server</text><rect fill="#FEFECE" filter="url(#f19rsne3wqeifr)" height="30.2969" style="stroke: #A80036; stroke-width: 1.5;" width="56" x="332.5" y="594.7578"/><text fill="#000000" font-family="sans-serif" font-size="14" lengthAdjust="spacingAndGlyphs" textLength="42" x="339.5" y="614.7529">Server</text><polygon fill="#A80036" points="350.5,65.4297,360.5,69.4297,350.5,73.4297,354.5,69.4297" style="stroke: #A80036; stroke-width: 1.0;"/><line style="stroke: #A80036; stroke-width: 1.0;" x1="198.5" x2="356.5" y1="69.4297" y2="69.4297"/><text fill="#000000" font-family="sans-serif" font-size="13" lengthAdjust="spacingAndGlyphs" textLength="23" x="205.5" y="64.3638">SYN</text><polygon fill="#A80036" points="209.5,94.5625,199.5,98.5625,209.5,102.5625,205.5,98.5625" style="stroke: #A80036; stroke-width: 1.0;"/><line style="stroke: #A80036; stroke-width: 1.0;" x1="203.5" x2="361.5" y1="98.5625" y2="98.5625"/><text fill="#000000" font-family="sans-serif" font-size="13" lengthAdjust="spacingAndGlyphs" textLength="52" x="215.5" y="93.4966">SYN/ACK</text><polygon fill="#A80036" points="350.5,123.6953,360.5,127.6953,350.5,131.6953,354.5,127.6953" style="stroke: #A80036; stroke-width: 1.0;"/><line style="stroke: #A80036; stroke-width: 1.0;" x1="198.5" x2="356.5" y1="127.6953" y2="127.6953"/><text fill="#000000" font-family="sans-serif" font-size="13" lengthAdjust="spacingAndGlyphs" textLength="24" x="205.5" y="122.6294">ACK</text><polygon fill="#A80036" points="209.5,152.8281,199.5,156.8281,209.5,160.8281,205.5,156.8281" style="stroke: #A80036; stroke-width: 1.0;"/><polygon fill="#A80036" points="350.5,152.8281,360.5,156.8281,350.5,160.8281,354.5,156.8281" style="stroke: #A80036; stroke-width: 1.0;"/><line style="stroke: #A80036; stroke-width: 1.0; stroke-dasharray: 2.0,2.0;" x1="203.5" x2="356.5" y1="156.8281" y2="156.8281"/><text fill="#000000" font-family="sans-serif" font-size="13" lengthAdjust="spacingAndGlyphs" textLength="79" x="215.5" y="151.7622">ESTABLISHED</text><polygon fill="#A80036" points="350.5,209.6602,360.5,213.6602,350.5,217.6602,354.5,213.6602" style="stroke: #A80036; stroke-width: 1.0;"/><line style="stroke: #A80036; stroke-width: 1.0;" x1="198.5" x2="356.5" y1="213.6602" y2="213.6602"/><text fill="#000000" font-family="sans-serif" font-size="13" lengthAdjust="spacingAndGlyphs" textLength="82" x="205.5" y="208.5942">CLIENT HELLO</text><path d="M8,169.8281 L8,239.8281 L190,239.8281 L190,179.8281 L180,169.8281 L8,169.8281 " fill="#FBFB77" filter="url(#f19rsne3wqeifr)" style="stroke: #A80036; stroke-width: 1.0;"/><path d="M180,169.8281 L180,179.8281 L190,179.8281 L180,169.8281 " fill="#FBFB77" style="stroke: #A80036; stroke-width: 1.0;"/><text fill="#000000" font-family="sans-serif" font-size="13" lengthAdjust="spacingAndGlyphs" textLength="125" x="14" y="186.895">- SSL Protocol version</text><text fill="#000000" font-family="sans-serif" font-size="13" lengthAdjust="spacingAndGlyphs" textLength="65" x="14" y="202.0278">- SessionID</text><text fill="#000000" font-family="sans-serif" font-size="13" lengthAdjust="spacingAndGlyphs" textLength="121" x="14" y="217.1606">- List of Cipher Suites</text><text fill="#000000" font-family="sans-serif" font-size="13" lengthAdjust="spacingAndGlyphs" textLength="4" x="14" y="232.2935">-</text><text fill="#000000" font-family="sans-serif" font-size="13" font-weight="bold" lengthAdjust="spacingAndGlyphs" textLength="87" x="21" y="232.2935">CLIENT HELLO</text><text fill="#000000" font-family="sans-serif" font-size="13" lengthAdjust="spacingAndGlyphs" textLength="64" x="111" y="232.2935">Extensions</text><polygon fill="#A80036" points="209.5,309.3242,199.5,313.3242,209.5,317.3242,205.5,313.3242" style="stroke: #A80036; stroke-width: 1.0;"/><line style="stroke: #A80036; stroke-width: 1.0;" x1="203.5" x2="361.5" y1="313.3242" y2="313.3242"/><text fill="#000000" font-family="sans-serif" font-size="13" lengthAdjust="spacingAndGlyphs" textLength="85" x="215.5" y="308.2583">SERVER HELLO</text><path d="M367,254.3594 L367,354.3594 L602,354.3594 L602,264.3594 L592,254.3594 L367,254.3594 " fill="#FBFB77" filter="url(#f19rsne3wqeifr)" style="stroke: #A80036; stroke-width: 1.0;"/><path d="M592,254.3594 L592,264.3594 L602,264.3594 L592,254.3594 " fill="#FBFB77" style="stroke: #A80036; stroke-width: 1.0;"/><text fill="#000000" font-family="sans-serif" font-size="13" lengthAdjust="spacingAndGlyphs" textLength="125" x="373" y="271.4263">- SSL Protocol version</text><text fill="#000000" font-family="sans-serif" font-size="13" lengthAdjust="spacingAndGlyphs" textLength="68" x="373" y="286.5591">- Session ID</text><text fill="#000000" font-family="sans-serif" font-size="13" lengthAdjust="spacingAndGlyphs" textLength="98" x="373" y="301.6919">- Selected Cipher</text><text fill="#000000" font-family="sans-serif" font-size="13" lengthAdjust="spacingAndGlyphs" textLength="105" x="373" y="316.8247">- Server Certificate</text><text fill="#000000" font-family="sans-serif" font-size="13" lengthAdjust="spacingAndGlyphs" textLength="4" x="373" y="331.9575">-</text><text fill="#000000" font-family="sans-serif" font-size="13" font-weight="bold" lengthAdjust="spacingAndGlyphs" textLength="88" x="380" y="331.9575">SERVER HELLO</text><text fill="#000000" font-family="sans-serif" font-size="13" lengthAdjust="spacingAndGlyphs" textLength="64" x="471" y="331.9575">Extensions</text><text fill="#000000" font-family="sans-serif" font-size="13" lengthAdjust="spacingAndGlyphs" textLength="214" x="373" y="347.0903">- Client Certificate Request (Optional)</text><polygon fill="#A80036" points="350.5,393.8555,360.5,397.8555,350.5,401.8555,354.5,397.8555" style="stroke: #A80036; stroke-width: 1.0;"/><line style="stroke: #A80036; stroke-width: 1.0;" x1="198.5" x2="356.5" y1="397.8555" y2="397.8555"/><text fill="#000000" font-family="sans-serif" font-size="13" lengthAdjust="spacingAndGlyphs" textLength="120" x="205.5" y="392.7896">PRE MASTER SECRET</text><path d="M20,369.1563 L20,409.1563 L189,409.1563 L189,379.1563 L179,369.1563 L20,369.1563 " fill="#FBFB77" filter="url(#f19rsne3wqeifr)" style="stroke: #A80036; stroke-width: 1.0;"/><path d="M179,369.1563 L179,379.1563 L189,379.1563 L179,369.1563 " fill="#FBFB77" style="stroke: #A80036; stroke-width: 1.0;"/><text fill="#000000" font-family="sans-serif" font-size="13" lengthAdjust="spacingAndGlyphs" textLength="109" x="26" y="386.2231">- Pre-master secret</text><text fill="#000000" font-family="sans-serif" font-size="13" lengthAdjust="spacingAndGlyphs" textLength="148" x="26" y="401.356">- Client Cert (if requested)</text><polygon fill="#A80036" points="209.5,440.5547,199.5,444.5547,209.5,448.5547,205.5,444.5547" style="stroke: #A80036; stroke-width: 1.0;"/><polygon fill="#A80036" points="350.5,440.5547,360.5,444.5547,350.5,448.5547,354.5,444.5547" style="stroke: #A80036; stroke-width: 1.0;"/><line style="stroke: #A80036; stroke-width: 1.0; stroke-dasharray: 2.0,2.0;" x1="203.5" x2="356.5" y1="444.5547" y2="444.5547"/><text fill="#000000" font-family="sans-serif" font-size="13" lengthAdjust="spacingAndGlyphs" textLength="140" x="215.5" y="439.4888">SESSION KEY CREATION</text><path d="M367,423.4219 L367,448.4219 L628,448.4219 L628,433.4219 L618,423.4219 L367,423.4219 " fill="#FBFB77" filter="url(#f19rsne3wqeifr)" style="stroke: #A80036; stroke-width: 1.0;"/><path d="M618,423.4219 L618,433.4219 L628,433.4219 L618,423.4219 " fill="#FBFB77" style="stroke: #A80036; stroke-width: 1.0;"/><text fill="#000000" font-family="sans-serif" font-size="13" lengthAdjust="spacingAndGlyphs" textLength="240" x="373" y="440.4888">Server Authenticates the Client (Optional)</text><text fill="#000000" font-family="sans-serif" font-size="11" lengthAdjust="spacingAndGlyphs" textLength="284" x="138.5" y="481.7651">Master secret is used to generate Symmetric session keys</text><polygon fill="#A80036" points="350.5,515.4922,360.5,519.4922,350.5,523.4922,354.5,519.4922" style="stroke: #A80036; stroke-width: 1.0;"/><line style="stroke: #A80036; stroke-width: 1.0;" x1="198.5" x2="356.5" y1="519.4922" y2="519.4922"/><text fill="#000000" font-family="sans-serif" font-size="13" lengthAdjust="spacingAndGlyphs" textLength="99" x="205.5" y="514.4263">CLIENT FINISHED</text><polygon fill="#A80036" points="209.5,544.625,199.5,548.625,209.5,552.625,205.5,548.625" style="stroke: #A80036; stroke-width: 1.0;"/><line style="stroke: #A80036; stroke-width: 1.0;" x1="203.5" x2="361.5" y1="548.625" y2="548.625"/><text fill="#000000" font-family="sans-serif" font-size="13" lengthAdjust="spacingAndGlyphs" textLength="102" x="215.5" y="543.5591">SERVER FINISHED</text><polygon fill="#A80036" points="209.5,573.7578,199.5,577.7578,209.5,581.7578,205.5,577.7578" style="stroke: #A80036; stroke-width: 1.0;"/><polygon fill="#A80036" points="350.5,573.7578,360.5,577.7578,350.5,581.7578,354.5,577.7578" style="stroke: #A80036; stroke-width: 1.0;"/><line style="stroke: #A80036; stroke-width: 1.0; stroke-dasharray: 2.0,2.0;" x1="203.5" x2="356.5" y1="577.7578" y2="577.7578"/><text fill="#000000" font-family="sans-serif" font-size="13" lengthAdjust="spacingAndGlyphs" textLength="130" x="215.5" y="572.6919">EXCHANGE MESSAGES</text><!--MD5=[f606976fb9640f3d84fe4a53784e2734]
@startuml

Client -> Server : SYN
Client <- Server : SYN/ACK
Client -> Server : ACK
Client <- -> Server : ESTABLISHED

Client -> Server : CLIENT HELLO
note left 
	- SSL Protocol version
	- SessionID
	- List of Cipher Suites
	- **CLIENT HELLO** Extensions
end note
Client <- Server : SERVER HELLO
note right
	- SSL Protocol version
	- Session ID
	- Selected Cipher
	- Server Certificate
	- **SERVER HELLO** Extensions
	- Client Certificate Request (Optional)
end note
Client -> Server : PRE MASTER SECRET
note left 
	- Pre-master secret
	- Client Cert (if requested)
end note
Client <- -> Server : SESSION KEY CREATION
note right
	Server Authenticates the Client (Optional)
end note

... Master secret is used to generate Symmetric session keys ...

Client -> Server : CLIENT FINISHED
Client <- Server : SERVER FINISHED
Client <- -> Server : EXCHANGE MESSAGES


@enduml

PlantUML version 1.2020.15(Sun Jun 28 11:39:45 GMT 2020)
(GPL source distribution)
Java Runtime: OpenJDK Runtime Environment
JVM: OpenJDK 64-Bit Server VM
Default Encoding: UTF-8
Language: en
Country: US
--></g></svg>