<?xml version="1.0" encoding="UTF-8" standalone="no"?><svg xmlns="http://www.w3.org/2000/svg" xmlns:xlink="http://www.w3.org/1999/xlink" contentScriptType="application/ecmascript" contentStyleType="text/css" height="641px" preserveAspectRatio="none" style="width:634px;height:641px;background:#FFFFFF;" version="1.1" viewBox="0 0 634 641" width="634px" zoomAndPan="magnify"><defs><filter height="300%" id="f19rsne3wqeifr" width="300%" x="-1" y="-1"><feGaussianBlur result="blurOut" stdDeviation="2.0"/><feColorMatrix in="blurOut" result="blurOut2" type="matrix" values="0 0 0 0 0 0 0 0 0 0 0 0 0 0 0 0 0 0 .4 0"/><feOffset dx="4.0" dy="4.0" in="blurOut2" result="blurOut3"/><feBlend in="SourceGraphic" in2="blurOut3" mode="normal"/></filter></defs><g><line style="stroke:#A80036;stroke-width:1.0;" x1="195" x2="195" y1="40.2969" y2="459.5547"/><line style="stroke:#A80036;stroke-width:1.0;stroke-dasharray:1.0,4.0;" x1="195" x2="195" y1="459.5547" y2="500.3594"/><line style="stroke:#A80036;stroke-width:1.0;" x1="195" x2="195" y1="500.3594" y2="597.7578"/><line style="stroke:#A80036;stroke-width:1.0;" x1="359.5" x2="359.5" y1="40.2969" y2="459.5547"/><line style="stroke:#A80036;stroke-width:1.0;stroke-dasharray:1.0,4.0;" x1="359.5" x2="359.5" y1="459.5547" y2="500.3594"/><line style="stroke:#A80036;stroke-width:1.0;" x1="359.5" x2="359.5" y1="500.3594" y2="597.7578"/><rect fill="#FEFECE" filter="url(#f19rsne3wqeifr)" height="30.2969" style="stroke:#A80036;stroke-width:1.5;" width="51" x="168" y="5"/><text fill="#000000" font-family="sans-serif" font-size="14" lengthAdjust="spacing" textLength="37" x="175" y="24.9951">Client</text><rect fill="#FEFECE" filter="url(#f19rsne3wqeifr)" height="30.2969" style="stroke:#A80036;stroke-width:1.5;" width="51" x="168" y="596.7578"/><text fill="#000000" font-family="sans-serif" font-size="14" lengthAdjust="spacing" textLength="37" x="175" y="616.7529">Client</text><rect fill="#FEFECE" filter="url(#f19rsne3wqeifr)" height="30.2969" style="stroke:#A80036;stroke-width:1.5;" width="56" x="329.5" y="5"/><text fill="#000000" font-family="sans-serif" font-size="14" lengthAdjust="spacing" textLength="42" x="336.5" y="24.9951">Server</text><rect fill="#FEFECE" filter="url(#f19rsne3wqeifr)" height="30.2969" style="stroke:#A80036;stroke-width:1.5;" width="56" x="329.5" y="596.7578"/><text fill="#000000" font-family="sans-serif" font-size="14" lengthAdjust="spacing" textLength="42" x="336.5" y="616.7529">Server</text><polygon fill="#A80036" points="347.5,67.4297,357.5,71.4297,347.5,75.4297,351.5,71.4297" style="stroke:#A80036;stroke-width:1.0;"/><line style="stroke:#A80036;stroke-width:1.0;" x1="195.5" x2="353.5" y1="71.4297" y2="71.4297"/><text fill="#000000" font-family="sans-serif" font-size="13" lengthAdjust="spacing" textLength="23" x="202.5" y="66.3638">SYN</text><polygon fill="#A80036" points="206.5,96.5625,196.5,100.5625,206.5,104.5625,202.5,100.5625" style="stroke:#A80036;stroke-width:1.0;"/><line style="stroke:#A80036;stroke-width:1.0;" x1="200.5" x2="358.5" y1="100.5625" y2="100.5625"/><text fill="#000000" font-family="sans-serif" font-size="13" lengthAdjust="spacing" textLength="52" x="212.5" y="95.4966">SYN/ACK</text><polygon fill="#A80036" points="347.5,125.6953,357.5,129.6953,347.5,133.6953,351.5,129.6953" style="stroke:#A80036;stroke-width:1.0;"/><line style="stroke:#A80036;stroke-width:1.0;" x1="195.5" x2="353.5" y1="129.6953" y2="129.6953"/><text fill="#000000" font-family="sans-serif" font-size="13" lengthAdjust="spacing" textLength="24" x="202.5" y="124.6294">ACK</text><polygon fill="#A80036" points="206.5,154.8281,196.5,158.8281,206.5,162.8281,202.5,158.8281" style="stroke:#A80036;stroke-width:1.0;"/><polygon fill="#A80036" points="347.5,154.8281,357.5,158.8281,347.5,162.8281,351.5,158.8281" style="stroke:#A80036;stroke-width:1.0;"/><line style="stroke:#A80036;stroke-width:1.0;stroke-dasharray:2.0,2.0;" x1="200.5" x2="353.5" y1="158.8281" y2="158.8281"/><text fill="#000000" font-family="sans-serif" font-size="13" lengthAdjust="spacing" textLength="79" x="212.5" y="153.7622">ESTABLISHED</text><polygon fill="#A80036" points="347.5,211.6602,357.5,215.6602,347.5,219.6602,351.5,215.6602" style="stroke:#A80036;stroke-width:1.0;"/><line style="stroke:#A80036;stroke-width:1.0;" x1="195.5" x2="353.5" y1="215.6602" y2="215.6602"/><text fill="#000000" font-family="sans-serif" font-size="13" lengthAdjust="spacing" textLength="82" x="202.5" y="210.5942">CLIENT HELLO</text><path d="M5,171.8281 L5,241.8281 L187,241.8281 L187,181.8281 L177,171.8281 L5,171.8281 " fill="#FBFB77" filter="url(#f19rsne3wqeifr)" style="stroke:#A80036;stroke-width:1.0;"/><path d="M177,171.8281 L177,181.8281 L187,181.8281 L177,171.8281 " fill="#FBFB77" style="stroke:#A80036;stroke-width:1.0;"/><text fill="#000000" font-family="sans-serif" font-size="13" lengthAdjust="spacing" textLength="125" x="11" y="188.895">- SSL Protocol version</text><text fill="#000000" font-family="sans-serif" font-size="13" lengthAdjust="spacing" textLength="65" x="11" y="204.0278">- SessionID</text><text fill="#000000" font-family="sans-serif" font-size="13" lengthAdjust="spacing" textLength="121" x="11" y="219.1606">- List of Cipher Suites</text><text fill="#000000" font-family="sans-serif" font-size="13" lengthAdjust="spacing" textLength="4" x="11" y="234.2935">-</text><text fill="#000000" font-family="sans-serif" font-size="13" font-weight="bold" lengthAdjust="spacing" textLength="87" x="18" y="234.2935">CLIENT HELLO</text><text fill="#000000" font-family="sans-serif" font-size="13" lengthAdjust="spacing" textLength="64" x="108" y="234.2935">Extensions</text><polygon fill="#A80036" points="206.5,311.3242,196.5,315.3242,206.5,319.3242,202.5,315.3242" style="stroke:#A80036;stroke-width:1.0;"/><line style="stroke:#A80036;stroke-width:1.0;" x1="200.5" x2="358.5" y1="315.3242" y2="315.3242"/><text fill="#000000" font-family="sans-serif" font-size="13" lengthAdjust="spacing" textLength="85" x="212.5" y="310.2583">SERVER HELLO</text><path d="M364,256.3594 L364,356.3594 L599,356.3594 L599,266.3594 L589,256.3594 L364,256.3594 " fill="#FBFB77" filter="url(#f19rsne3wqeifr)" style="stroke:#A80036;stroke-width:1.0;"/><path d="M589,256.3594 L589,266.3594 L599,266.3594 L589,256.3594 " fill="#FBFB77" style="stroke:#A80036;stroke-width:1.0;"/><text fill="#000000" font-family="sans-serif" font-size="13" lengthAdjust="spacing" textLength="125" x="370" y="273.4263">- SSL Protocol version</text><text fill="#000000" font-family="sans-serif" font-size="13" lengthAdjust="spacing" textLength="68" x="370" y="288.5591">- Session ID</text><text fill="#000000" font-family="sans-serif" font-size="13" lengthAdjust="spacing" textLength="98" x="370" y="303.6919">- Selected Cipher</text><text fill="#000000" font-family="sans-serif" font-size="13" lengthAdjust="spacing" textLength="105" x="370" y="318.8247">- Server Certificate</text><text fill="#000000" font-family="sans-serif" font-size="13" lengthAdjust="spacing" textLength="4" x="370" y="333.9575">-</text><text fill="#000000" font-family="sans-serif" font-size="13" font-weight="bold" lengthAdjust="spacing" textLength="88" x="377" y="333.9575">SERVER HELLO</text><text fill="#000000" font-family="sans-serif" font-size="13" lengthAdjust="spacing" textLength="64" x="468" y="333.9575">Extensions</text><text fill="#000000" font-family="sans-serif" font-size="13" lengthAdjust="spacing" textLength="214" x="370" y="349.0903">- Client Certificate Request (Optional)</text><polygon fill="#A80036" points="347.5,395.8555,357.5,399.8555,347.5,403.8555,351.5,399.8555" style="stroke:#A80036;stroke-width:1.0;"/><line style="stroke:#A80036;stroke-width:1.0;" x1="195.5" x2="353.5" y1="399.8555" y2="399.8555"/><text fill="#000000" font-family="sans-serif" font-size="13" lengthAdjust="spacing" textLength="120" x="202.5" y="394.7896">PRE MASTER SECRET</text><path d="M17,371.1563 L17,411.1563 L186,411.1563 L186,381.1563 L176,371.1563 L17,371.1563 " fill="#FBFB77" filter="url(#f19rsne3wqeifr)" style="stroke:#A80036;stroke-width:1.0;"/><path d="M176,371.1563 L176,381.1563 L186,381.1563 L176,371.1563 " fill="#FBFB77" style="stroke:#A80036;stroke-width:1.0;"/><text fill="#000000" font-family="sans-serif" font-size="13" lengthAdjust="spacing" textLength="109" x="23" y="388.2231">- Pre-master secret</text><text fill="#000000" font-family="sans-serif" font-size="13" lengthAdjust="spacing" textLength="148" x="23" y="403.356">- Client Cert (if requested)</text><polygon fill="#A80036" points="206.5,442.5547,196.5,446.5547,206.5,450.5547,202.5,446.5547" style="stroke:#A80036;stroke-width:1.0;"/><polygon fill="#A80036" points="347.5,442.5547,357.5,446.5547,347.5,450.5547,351.5,446.5547" style="stroke:#A80036;stroke-width:1.0;"/><line style="stroke:#A80036;stroke-width:1.0;stroke-dasharray:2.0,2.0;" x1="200.5" x2="353.5" y1="446.5547" y2="446.5547"/><text fill="#000000" font-family="sans-serif" font-size="13" lengthAdjust="spacing" textLength="140" x="212.5" y="441.4888">SESSION KEY CREATION</text><path d="M364,425.4219 L364,450.4219 L625,450.4219 L625,435.4219 L615,425.4219 L364,425.4219 " fill="#FBFB77" filter="url(#f19rsne3wqeifr)" style="stroke:#A80036;stroke-width:1.0;"/><path d="M615,425.4219 L615,435.4219 L625,435.4219 L615,425.4219 " fill="#FBFB77" style="stroke:#A80036;stroke-width:1.0;"/><text fill="#000000" font-family="sans-serif" font-size="13" lengthAdjust="spacing" textLength="240" x="370" y="442.4888">Server Authenticates the Client (Optional)</text><text fill="#000000" font-family="sans-serif" font-size="11" lengthAdjust="spacing" textLength="284" x="135.5" y="483.7651">Master secret is used to generate Symmetric session keys</text><polygon fill="#A80036" points="347.5,517.4922,357.5,521.4922,347.5,525.4922,351.5,521.4922" style="stroke:#A80036;stroke-width:1.0;"/><line style="stroke:#A80036;stroke-width:1.0;" x1="195.5" x2="353.5" y1="521.4922" y2="521.4922"/><text fill="#000000" font-family="sans-serif" font-size="13" lengthAdjust="spacing" textLength="99" x="202.5" y="516.4263">CLIENT FINISHED</text><polygon fill="#A80036" points="206.5,546.625,196.5,550.625,206.5,554.625,202.5,550.625" style="stroke:#A80036;stroke-width:1.0;"/><line style="stroke:#A80036;stroke-width:1.0;" x1="200.5" x2="358.5" y1="550.625" y2="550.625"/><text fill="#000000" font-family="sans-serif" font-size="13" lengthAdjust="spacing" textLength="102" x="212.5" y="545.5591">SERVER FINISHED</text><polygon fill="#A80036" points="206.5,575.7578,196.5,579.7578,206.5,583.7578,202.5,579.7578" style="stroke:#A80036;stroke-width:1.0;"/><polygon fill="#A80036" points="347.5,575.7578,357.5,579.7578,347.5,583.7578,351.5,579.7578" style="stroke:#A80036;stroke-width:1.0;"/><line style="stroke:#A80036;stroke-width:1.0;stroke-dasharray:2.0,2.0;" x1="200.5" x2="353.5" y1="579.7578" y2="579.7578"/><text fill="#000000" font-family="sans-serif" font-size="13" lengthAdjust="spacing" textLength="130" x="212.5" y="574.6919">EXCHANGE MESSAGES</text><!--MD5=[7820efd08faa84788d5ef3a7ef059c0e]
@startuml

Client -> Server : SYN
Client <- Server : SYN/ACK
Client -> Server : ACK
Client <- -> Server : ESTABLISHED

Client -> Server : CLIENT HELLO
note left 
	- SSL Protocol version
	- SessionID
	- List of Cipher Suites
	- **CLIENT HELLO** Extensions
end note
Client <- Server : SERVER HELLO
note right
	- SSL Protocol version
	- Session ID
	- Selected Cipher
	- Server Certificate
	- **SERVER HELLO** Extensions
	- Client Certificate Request (Optional)
end note
Client -> Server : PRE MASTER SECRET
note left 
	- Pre-master secret
	- Client Cert (if requested)
end note
Client <- -> Server : SESSION KEY CREATION
note right
	Server Authenticates the Client (Optional)
end note

... Master secret is used to generate Symmetric session keys ...

Client -> Server : CLIENT FINISHED
Client <- Server : SERVER FINISHED
Client <- -> Server : EXCHANGE MESSAGES


@enduml

PlantUML version 1.2021.6(Fri May 14 07:09:51 GMT 2021)
(GPL source distribution)
Java Runtime: OpenJDK Runtime Environment
JVM: OpenJDK 64-Bit Server VM
Default Encoding: UTF-8
Language: en
Country: US
--></g></svg>