<?xml version="1.0" encoding="UTF-8" standalone="no"?><svg xmlns="http://www.w3.org/2000/svg" xmlns:xlink="http://www.w3.org/1999/xlink" contentScriptType="application/ecmascript" contentStyleType="text/css" height="416px" preserveAspectRatio="none" style="width:334px;height:416px;" version="1.1" viewBox="0 0 334 416" width="334px" zoomAndPan="magnify"><defs><filter height="300%" id="f19effslgxcbfr" width="300%" x="-1" y="-1"><feGaussianBlur result="blurOut" stdDeviation="2.0"/><feColorMatrix in="blurOut" result="blurOut2" type="matrix" values="0 0 0 0 0 0 0 0 0 0 0 0 0 0 0 0 0 0 .4 0"/><feOffset dx="4.0" dy="4.0" in="blurOut2" result="blurOut3"/><feBlend in="SourceGraphic" in2="blurOut3" mode="normal"/></filter></defs><g><ellipse cx="132.25" cy="20" fill="#000000" filter="url(#f19effslgxcbfr)" rx="10" ry="10" style="stroke:none;stroke-width:1.0;"/><polygon fill="#FEFECE" filter="url(#f19effslgxcbfr)" points="109.25,98.4023,155.25,98.4023,167.25,110.4023,155.25,122.4023,109.25,122.4023,97.25,110.4023,109.25,98.4023" style="stroke:#A80036;stroke-width:1.5;"/><text fill="#000000" font-family="sans-serif" font-size="11" lengthAdjust="spacingAndGlyphs" textLength="46" x="109.25" y="114.2104">In AlOut?</text><text fill="#000000" font-family="sans-serif" font-size="11" lengthAdjust="spacingAndGlyphs" textLength="15" x="82.25" y="107.8081">Hit</text><text fill="#000000" font-family="sans-serif" font-size="11" lengthAdjust="spacingAndGlyphs" textLength="23" x="167.25" y="107.8081">Miss</text><rect fill="#FEFECE" filter="url(#f19effslgxcbfr)" height="33.9688" rx="12.5" ry="12.5" style="stroke:#A80036;stroke-width:1.5;" width="84" x="11" y="132.4023"/><text fill="#000000" font-family="sans-serif" font-size="12" lengthAdjust="spacingAndGlyphs" textLength="64" x="21" y="153.541">Add to Am()</text><rect fill="#FEFECE" filter="url(#f19effslgxcbfr)" height="33.9688" rx="12.5" ry="12.5" style="stroke:#A80036;stroke-width:1.5;" width="87" x="168" y="180.8047"/><text fill="#000000" font-family="sans-serif" font-size="12" lengthAdjust="spacingAndGlyphs" textLength="67" x="178" y="201.9434">Add to AlIn()</text><rect fill="#FEFECE" filter="url(#f19effslgxcbfr)" height="33.9688" rx="12.5" ry="12.5" style="stroke:#A80036;stroke-width:1.5;" width="173" x="125" y="249.7734"/><text fill="#000000" font-family="sans-serif" font-size="12" lengthAdjust="spacingAndGlyphs" textLength="153" x="135" y="270.9121">Add the tail of AlIn to AlOut()</text><polygon fill="#FEFECE" filter="url(#f19effslgxcbfr)" points="192.5,132.4023,230.5,132.4023,242.5,144.4023,230.5,156.4023,192.5,156.4023,180.5,144.4023,192.5,132.4023" style="stroke:#A80036;stroke-width:1.5;"/><text fill="#000000" font-family="sans-serif" font-size="11" lengthAdjust="spacingAndGlyphs" textLength="23" x="215.5" y="166.6128">Miss</text><text fill="#000000" font-family="sans-serif" font-size="11" lengthAdjust="spacingAndGlyphs" textLength="38" x="192.5" y="148.2104">In AlIn?</text><text fill="#000000" font-family="sans-serif" font-size="11" lengthAdjust="spacingAndGlyphs" textLength="13" x="242.5" y="141.8081">hit</text><polygon fill="#FEFECE" filter="url(#f19effslgxcbfr)" points="211.5,303.7422,223.5,315.7422,211.5,327.7422,199.5,315.7422,211.5,303.7422" style="stroke:#A80036;stroke-width:1.5;"/><polygon fill="#FEFECE" filter="url(#f19effslgxcbfr)" points="132.25,333.7422,144.25,345.7422,132.25,357.7422,120.25,345.7422,132.25,333.7422" style="stroke:#A80036;stroke-width:1.5;"/><ellipse cx="132.25" cy="388.7422" fill="#FFFFFF" filter="url(#f19effslgxcbfr)" rx="11" ry="11" style="stroke:#000000;stroke-width:1.0;"/><ellipse cx="132.25" cy="388.7422" fill="#000000" rx="6" ry="6" style="stroke:#7F7F7F;stroke-width:1.0;"/><polygon fill="#FEFECE" filter="url(#f19effslgxcbfr)" points="114.75,50,149.75,50,161.75,62,149.75,74,114.75,74,102.75,62,114.75,50" style="stroke:#A80036;stroke-width:1.5;"/><text fill="#000000" font-family="sans-serif" font-size="11" lengthAdjust="spacingAndGlyphs" textLength="23" x="136.25" y="84.2104">miss</text><text fill="#000000" font-family="sans-serif" font-size="11" lengthAdjust="spacingAndGlyphs" textLength="35" x="114.75" y="65.8081">In Am?</text><text fill="#000000" font-family="sans-serif" font-size="11" lengthAdjust="spacingAndGlyphs" textLength="15" x="161.75" y="59.4058">Hit</text><ellipse cx="198.75" cy="62" fill="#FFFFFF" filter="url(#f19effslgxcbfr)" rx="11" ry="11" style="stroke:#000000;stroke-width:1.0;"/><ellipse cx="198.75" cy="62" fill="#000000" rx="6" ry="6" style="stroke:#7F7F7F;stroke-width:1.0;"/><line style="stroke:#A80036;stroke-width:1.5;" x1="211.5" x2="211.5" y1="214.7734" y2="249.7734"/><polygon fill="#A80036" points="207.5,239.7734,211.5,249.7734,215.5,239.7734,211.5,243.7734" style="stroke:#A80036;stroke-width:1.0;"/><line style="stroke:#A80036;stroke-width:1.5;" x1="211.5" x2="211.5" y1="156.4023" y2="180.8047"/><polygon fill="#A80036" points="207.5,170.8047,211.5,180.8047,215.5,170.8047,211.5,174.8047" style="stroke:#A80036;stroke-width:1.0;"/><line style="stroke:#A80036;stroke-width:1.5;" x1="242.5" x2="308" y1="144.4023" y2="144.4023"/><polygon fill="#A80036" points="304,222.2734,308,232.2734,312,222.2734,308,226.2734" style="stroke:#A80036;stroke-width:1.5;"/><line style="stroke:#A80036;stroke-width:1.5;" x1="308" x2="308" y1="144.4023" y2="315.7422"/><line style="stroke:#A80036;stroke-width:1.5;" x1="308" x2="223.5" y1="315.7422" y2="315.7422"/><polygon fill="#A80036" points="233.5,311.7422,223.5,315.7422,233.5,319.7422,229.5,315.7422" style="stroke:#A80036;stroke-width:1.0;"/><line style="stroke:#A80036;stroke-width:1.5;" x1="211.5" x2="211.5" y1="283.7422" y2="303.7422"/><polygon fill="#A80036" points="207.5,293.7422,211.5,303.7422,215.5,293.7422,211.5,297.7422" style="stroke:#A80036;stroke-width:1.0;"/><line style="stroke:#A80036;stroke-width:1.5;" x1="97.25" x2="53" y1="110.4023" y2="110.4023"/><line style="stroke:#A80036;stroke-width:1.5;" x1="53" x2="53" y1="110.4023" y2="132.4023"/><polygon fill="#A80036" points="49,122.4023,53,132.4023,57,122.4023,53,126.4023" style="stroke:#A80036;stroke-width:1.0;"/><line style="stroke:#A80036;stroke-width:1.5;" x1="167.25" x2="211.5" y1="110.4023" y2="110.4023"/><line style="stroke:#A80036;stroke-width:1.5;" x1="211.5" x2="211.5" y1="110.4023" y2="132.4023"/><polygon fill="#A80036" points="207.5,122.4023,211.5,132.4023,215.5,122.4023,211.5,126.4023" style="stroke:#A80036;stroke-width:1.0;"/><line style="stroke:#A80036;stroke-width:1.5;" x1="53" x2="53" y1="166.3711" y2="345.7422"/><line style="stroke:#A80036;stroke-width:1.5;" x1="53" x2="120.25" y1="345.7422" y2="345.7422"/><polygon fill="#A80036" points="110.25,341.7422,120.25,345.7422,110.25,349.7422,114.25,345.7422" style="stroke:#A80036;stroke-width:1.0;"/><line style="stroke:#A80036;stroke-width:1.5;" x1="211.5" x2="211.5" y1="327.7422" y2="345.7422"/><line style="stroke:#A80036;stroke-width:1.5;" x1="211.5" x2="144.25" y1="345.7422" y2="345.7422"/><polygon fill="#A80036" points="154.25,341.7422,144.25,345.7422,154.25,349.7422,150.25,345.7422" style="stroke:#A80036;stroke-width:1.0;"/><line style="stroke:#A80036;stroke-width:1.5;" x1="132.25" x2="132.25" y1="357.7422" y2="377.7422"/><polygon fill="#A80036" points="128.25,367.7422,132.25,377.7422,136.25,367.7422,132.25,371.7422" style="stroke:#A80036;stroke-width:1.0;"/><line style="stroke:#A80036;stroke-width:1.5;" x1="132.25" x2="132.25" y1="74" y2="98.4023"/><polygon fill="#A80036" points="128.25,88.4023,132.25,98.4023,136.25,88.4023,132.25,92.4023" style="stroke:#A80036;stroke-width:1.0;"/><line style="stroke:#A80036;stroke-width:1.5;" x1="161.75" x2="187.75" y1="62" y2="62"/><polygon fill="#A80036" points="177.75,58,187.75,62,177.75,66,181.75,62" style="stroke:#A80036;stroke-width:1.0;"/><line style="stroke:#A80036;stroke-width:1.5;" x1="132.25" x2="132.25" y1="30" y2="50"/><polygon fill="#A80036" points="128.25,40,132.25,50,136.25,40,132.25,44" style="stroke:#A80036;stroke-width:1.0;"/><!--MD5=[928cb734fcc235773a64a6096b1f5050]
@startuml

start

if (In Am?) then (Hit)
    stop
else (miss)
    if (In AlOut?) then (Hit)
        :Add to Am();
    else (Miss)
        if (In AlIn?) then (Miss)
            :Add to AlIn();
            :Add the tail of AlIn to AlOut();
        else (hit)
    endif
endif

stop

@enduml

PlantUML version 1.2020.26(Mon Dec 21 17:45:07 GMT 2020)
(GPL source distribution)
Java Runtime: OpenJDK Runtime Environment
JVM: OpenJDK 64-Bit Server VM
Default Encoding: UTF-8
Language: en
Country: US
--></g></svg>