<?xml version="1.0" encoding="UTF-8" standalone="no"?><svg xmlns="http://www.w3.org/2000/svg" xmlns:xlink="http://www.w3.org/1999/xlink" contentScriptType="application/ecmascript" contentStyleType="text/css" height="131px" preserveAspectRatio="none" style="width:487px;height:131px;" version="1.1" viewBox="0 0 487 131" width="487px" zoomAndPan="magnify"><defs><filter height="300%" id="fpmhmvqolin7n" width="300%" x="-1" y="-1"><feGaussianBlur result="blurOut" stdDeviation="2.0"/><feColorMatrix in="blurOut" result="blurOut2" type="matrix" values="0 0 0 0 0 0 0 0 0 0 0 0 0 0 0 0 0 0 .4 0"/><feOffset dx="4.0" dy="4.0" in="blurOut2" result="blurOut3"/><feBlend in="SourceGraphic" in2="blurOut3" mode="normal"/></filter></defs><g><!--MD5=[2f83c499550e6f4330fb1ee50d9895f0]
cluster MIcrosoft Teams--><polygon fill="#FFFFFF" filter="url(#fpmhmvqolin7n)" points="16,16,26,6,205,6,205,98,195,108,16,108,16,16" style="stroke: #000000; stroke-width: 1.5;"/><line style="stroke: #000000; stroke-width: 1.5;" x1="195" x2="205" y1="16" y2="6"/><line style="stroke: #000000; stroke-width: 1.5;" x1="16" x2="195" y1="16" y2="16"/><line style="stroke: #000000; stroke-width: 1.5;" x1="195" x2="195" y1="16" y2="108"/><text fill="#000000" font-family="sans-serif" font-size="14" font-weight="bold" lengthAdjust="spacingAndGlyphs" textLength="113" x="50" y="31.9951">MIcrosoft Teams</text><path d="M237.2879,39.3148 C242.3092,30.6701 249.5578,29.0334 255.303,38.5986 C258.3045,31.9028 265.4032,30.1483 270.2152,36.5348 C274.8281,29.3575 281.2846,30.4664 285.2583,37.2248 C288.7944,29.0171 297.202,28.6891 302.1833,35.6077 C306.2217,27.8601 311.2158,26.9995 316.9971,33.8375 C322.0323,25.089 327.2268,26.3723 332.8769,33.211 C337.617,25.2385 344.2583,25.4748 350.0095,32.0177 C354.597,25.5554 361.0216,26.1581 364.7232,32.9977 C371.1181,26.4558 377.6129,25.5474 381.6004,35.4661 C385.8464,29.1265 392.9535,28.5664 397.1096,35.5706 C402.2362,26.037 409.1812,27.2137 414.421,35.4605 C418.6242,28.496 424.9155,29.4472 428.406,36.1878 C435.6498,28.4751 440.5464,30.4329 444.5686,39.3239 C449.962,30.1674 457.2149,29.7342 462.4952,39.4315 C470.1676,43.7519 470.2455,49.2611 464.2076,55.0817 C471.9119,57.1278 474.1663,63.8929 468.606,69.8812 C474.7074,77.3085 475.4905,83.828 464.5823,87.3337 C470.7763,92.0464 469.1431,99.2151 462.5482,102.175 C458.6718,108.6086 450.8388,109.6299 446.8526,102.3003 C443.2197,109.7146 434.8725,110.4101 430.0527,103.7134 C425.6822,111.1724 418.9491,111.4556 414.3338,103.9709 C410.6639,111.0048 403.833,111.5717 398.7673,105.6475 C394.3128,114.8304 387.3576,113.7423 381.6801,106.9561 C377.5863,115.3204 372.0795,114.5287 366.2109,108.9212 C362.0617,117.1857 355.0049,119.9416 348.6903,111.145 C342.9072,117.0768 337.59,117.9794 333.3938,109.4647 C327.6088,115.6467 320.5849,115.695 317.4603,106.6761 C312.0189,115.1241 307.2569,113.1922 301.6657,106.836 C295.8675,114.4118 291.1518,114.1505 286.4197,105.8145 C281.4127,112.7647 274.5878,112.9421 270.907,104.4798 C264.9084,112.6213 258.0218,112.6589 253.2879,103.2128 C247.8836,109.0907 242.8888,109.313 239.2832,101.3878 C230.7189,98.5732 231.8122,92.2987 236.7989,87.124 C228.2968,83.5363 229.2092,75.7739 235.4825,70.9814 C228.0537,65.9638 228.2041,59.2609 236.4701,55.2273 C229.6198,50.2848 228.4378,43.4504 237.2879,39.3148 " fill="#FFFFFF" filter="url(#fpmhmvqolin7n)" style="stroke: #000000; stroke-width: 1.5;"/><!--MD5=[6e8f311b0aa23032184ffba0ef926f91]
entity App--><rect fill="#FEFECE" filter="url(#fpmhmvqolin7n)" height="46.2969" style="stroke: #A80036; stroke-width: 1.5;" width="77" x="111.5" y="46"/><rect fill="#FEFECE" height="10" style="stroke: #A80036; stroke-width: 1.5;" width="15" x="168.5" y="51"/><rect fill="#FEFECE" height="2" style="stroke: #A80036; stroke-width: 1.5;" width="4" x="166.5" y="53"/><rect fill="#FEFECE" height="2" style="stroke: #A80036; stroke-width: 1.5;" width="4" x="166.5" y="57"/><text fill="#000000" font-family="sans-serif" font-size="14" lengthAdjust="spacingAndGlyphs" textLength="37" x="126.5" y="78.9951">"App"</text><!--MD5=[3ab6bc66408bc465e62c4c0dcccb802d]
entity Services--><rect fill="#FEFECE" filter="url(#fpmhmvqolin7n)" height="46.2969" style="stroke: #A80036; stroke-width: 1.5;" width="104" x="245" y="46"/><rect fill="#FEFECE" height="10" style="stroke: #A80036; stroke-width: 1.5;" width="15" x="329" y="51"/><rect fill="#FEFECE" height="2" style="stroke: #A80036; stroke-width: 1.5;" width="4" x="327" y="53"/><rect fill="#FEFECE" height="2" style="stroke: #A80036; stroke-width: 1.5;" width="4" x="327" y="57"/><text fill="#000000" font-family="sans-serif" font-size="14" lengthAdjust="spacingAndGlyphs" textLength="64" x="260" y="78.9951">"Services"</text><!--MD5=[cf25d34b6f9695ab689953484c0b6ae1]
entity Storage--><path d="M384,56.5 C384,46.5 418,46.5 418,46.5 C418,46.5 452,46.5 452,56.5 L452,81.7969 C452,91.7969 418,91.7969 418,91.7969 C418,91.7969 384,91.7969 384,81.7969 L384,56.5 " fill="#FEFECE" filter="url(#fpmhmvqolin7n)" style="stroke: #000000; stroke-width: 1.5;"/><path d="M384,56.5 C384,66.5 418,66.5 418,66.5 C418,66.5 452,66.5 452,56.5 " fill="none" style="stroke: #000000; stroke-width: 1.5;"/><text fill="#000000" font-family="sans-serif" font-size="14" lengthAdjust="spacingAndGlyphs" textLength="48" x="394" y="83.4951">Storage</text><!--MD5=[8ab5417c72b4790f630a27bed1f0826c]
link App to Services--><path d="M188.76,69 C205.75,69 222.73,69 239.72,69 " fill="none" id="App-to-Services" style="stroke: #A80036; stroke-width: 1.0;"/><polygon fill="#A80036" points="244.99,69,235.99,65,239.99,69,235.99,73,244.99,69" style="stroke: #A80036; stroke-width: 1.0;"/><!--MD5=[fbae0753fd45e43384003bf4bff6136f]
link Services to Storage--><path d="M349.46,69 C359.19,69 368.92,69 378.65,69 " fill="none" id="Services-to-Storage" style="stroke: #A80036; stroke-width: 1.0;"/><polygon fill="#A80036" points="383.73,69,374.73,65,378.73,69,374.73,73,383.73,69" style="stroke: #A80036; stroke-width: 1.0;"/><!--MD5=[beafc7ea1f260cdcf8393b3bab4954c4]
@startuml

node "MIcrosoft Teams" {
    ["App"] as App
}

cloud {
    ["Services"] as Services
     database "Storage" as Storage
}

App -> Services
Services -> Storage

@enduml

PlantUML version 1.2020.16(Sun Aug 23 20:20:43 GMT 2020)
(GPL source distribution)
Java Runtime: OpenJDK Runtime Environment
JVM: OpenJDK 64-Bit Server VM
Default Encoding: UTF-8
Language: en
Country: US
--></g></svg>